<?xml version="1.0" encoding="UTF-8"?>
<svg xmlns="http://www.w3.org/2000/svg" xmlns:xlink="http://www.w3.org/1999/xlink" width="64px" height="64px" viewBox="0 0 64 64" version="1.1">
<g id="surface1">
<path style=" stroke:none;fill-rule:nonzero;fill:rgb(0%,0%,0%);fill-opacity:1;" d="M 29.9375 8.136719 C 27.199219 8.648438 26.226562 8.941406 24.382812 9.890625 C 18.652344 12.820312 15.082031 18.933594 15.390625 25.332031 C 15.542969 28.324219 16.210938 30.511719 17.886719 33.390625 C 19.664062 36.460938 24.027344 43.550781 26.675781 47.65625 C 27.210938 48.5 27.878906 49.535156 30.050781 52.941406 C 31.0625 54.5 31.933594 55.78125 31.984375 55.78125 C 32.1875 55.78125 41.132812 41.679688 44.828125 35.515625 C 46.886719 32.074219 47.335938 31.214844 47.769531 29.859375 C 50.265625 22.019531 46.875 13.652344 39.710938 9.953125 C 37.113281 8.609375 35.425781 8.1875 32.433594 8.125 C 31.242188 8.097656 30.117188 8.097656 29.9375 8.136719 Z M 34.324219 17.695312 C 35.554688 18.140625 36.308594 18.628906 37.230469 19.5625 C 38.597656 20.941406 39.316406 22.707031 39.300781 24.679688 C 39.300781 26.6875 38.609375 28.3125 37.101562 29.808594 C 34.183594 32.738281 29.785156 32.738281 26.867188 29.808594 C 25.304688 28.25 24.691406 26.789062 24.691406 24.601562 C 24.691406 21.058594 27.199219 18.050781 30.703125 17.398438 C 31.652344 17.21875 33.402344 17.359375 34.324219 17.695312 Z M 34.324219 17.695312 "/>
</g>
</svg>
