<?xml version="1.0" standalone="no"?>
<!DOCTYPE svg PUBLIC "-//W3C//DTD SVG 20010904//EN"
 "http://www.w3.org/TR/2001/REC-SVG-20010904/DTD/svg10.dtd">
<svg version="1.0" xmlns="http://www.w3.org/2000/svg"
 width="500.000000pt" height="500.000000pt" viewBox="0 0 500.000000 500.000000"
 preserveAspectRatio="xMidYMid meet">

<g transform="translate(0.000000,500.000000) scale(0.100000,-0.100000)"
fill="#000000" stroke="none">
<path d="M2340 4364 c-214 -40 -290 -63 -434 -137 -448 -229 -727 -707 -703
-1207 12 -234 64 -405 195 -630 139 -240 480 -794 687 -1115 42 -66 94 -147
264 -413 79 -122 147 -222 151 -222 16 0 715 1102 1004 1584 161 269 196 336
230 442 195 613 -70 1267 -630 1556 -203 105 -335 138 -569 143 -93 2 -181 2
-195 -1z m343 -747 c96 -35 155 -73 227 -146 107 -108 163 -246 162 -400 0
-157 -54 -284 -172 -401 -228 -229 -572 -229 -800 0 -122 122 -170 236 -170
407 0 277 196 512 470 563 74 14 211 3 283 -23z"/>
</g>
</svg>
